<mxfile host="app.diagrams.net" modified="2024-02-27T08:14:03.445Z" agent="Mozilla/5.0 (Windows NT 10.0; Win64; x64) AppleWebKit/537.36 (KHTML, like Gecko) Chrome/121.0.0.0 Safari/537.36 Edg/121.0.0.0" version="22.1.21" etag="kvt_3pAJhK0ksFpJRsMS" type="github">
  <diagram name="第 1 页" id="f7fjwf3oyFXouwb6v8aw">
    <mxGraphModel>
      <root>
        <mxCell id="0" />
        <mxCell id="1" parent="0" />
      </root>
    </mxGraphModel>
  </diagram>
</mxfile>
